<svg xmlns="http://www.w3.org/2000/svg" xmlns:xlink="http://www.w3.org/1999/xlink" fill="none" version="1.1" width="24" height="24" viewBox="0 0 24 24"><defs><clipPath id="master_svg0_17_9"><rect x="0" y="0" width="24" height="24" rx="0"/></clipPath></defs><g style="mix-blend-mode:passthrough"><g clip-path="url(#master_svg0_17_9)"><g></g><g style="mix-blend-mode:passthrough"><path d="M2.85547,13.3242L2.85547,14.5L9.10547,14.5L9.10547,13.3242L8.25391,13.3242L8.87891,12.99219C8.6875,12.70703,8.30469,12.28516,7.98047,11.96484L8.64062,11.96484L8.64062,10.75L6.59766,10.75L6.59766,9.5L8.90234,9.5L8.90234,8.253910000000001L2.97266,8.253910000000001L2.97266,9.5L5.26562,9.5L5.26562,10.75L3.29688,10.75L3.29688,11.96484L5.26562,11.96484L5.26562,13.3242L2.85547,13.3242ZM6.98438,12.33203C7.25781,12.62891,7.59375,13.0156,7.79688,13.3242L6.59766,13.3242L6.59766,11.96484L7.72656,11.96484L6.98438,12.33203ZM0.910156,6.25L0.910156,17.2148L2.375,17.2148L2.375,16.585900000000002L9.51562,16.585900000000002L9.51562,17.2148L11.0508,17.2148L11.0508,6.25L0.910156,6.25ZM2.375,15.25L2.375,7.57031L9.51562,7.57031L9.51562,15.25L2.375,15.25Z" fill="#3D3D3D" fill-opacity="1"/></g><g style="mix-blend-mode:passthrough"><path d="M17.60156,6.5L17.60156,7.84766L22.8945,7.84766L22.8945,6.5L17.60156,6.5ZM21.27344,12.28125C21.78906,13.5469,22.2695,15.1914,22.3906,16.2031L23.6875,15.7227C23.5312,14.6875,23.0039,13.1055,22.4648,11.86328L21.27344,12.28125ZM17.57812,11.91016C17.28906,13.1914,16.78516,14.5312,16.17578,15.3789C16.48828,15.5391,17.05078,15.9297,17.30078,16.1406C17.92578,15.1797,18.52734,13.6562,18.875,12.21875L17.57812,11.91016ZM17.05078,9.40625L17.05078,10.75L19.40234,10.75L19.40234,15.5508C19.40234,15.7148,19.35547,15.75,19.19922,15.75C19.04297,15.75,18.53906,15.7656,18.05859,15.7383C18.25,16.1602,18.42969,16.7969,18.46484,17.2148C19.28125,17.2148,19.87109,17.1914,20.316409999999998,16.9531C20.76953,16.710900000000002,20.86719,16.3047,20.86719,15.5898L20.86719,10.75L23.5664,10.75L23.5664,9.40625L17.05078,9.40625ZM14.07422,5.74219L14.07422,8.16797L12.40625,8.16797L12.40625,9.5L13.79688,9.5C13.48438,10.878910000000001,12.886719,12.48828,12.191406,13.375C12.441406,13.7539,12.789062,14.4062,12.921875,14.8125C13.35547,14.1719,13.75,13.2266,14.07422,12.20703L14.07422,17.2461L15.50391,17.2461L15.50391,11.42188C15.82812,11.94922,16.15234,12.51562,16.32031,12.88281L17.08594,11.71484C16.87109,11.42188,15.85156,10.14062,15.50391,9.76172L15.50391,9.5L16.90625,9.5L16.90625,8.16797L15.50391,8.16797L15.50391,5.74219L14.07422,5.74219Z" fill="#3D3D3D" fill-opacity="1"/></g></g></g></svg>