<svg xmlns="http://www.w3.org/2000/svg" xmlns:xlink="http://www.w3.org/1999/xlink" fill="none" version="1.1" width="24" height="24" viewBox="0 0 24 24"><defs><clipPath id="master_svg0_17_839"><rect x="0" y="0" width="24" height="24" rx="0"/></clipPath></defs><g style="mix-blend-mode:passthrough"><g clip-path="url(#master_svg0_17_839)"><g></g><g style="mix-blend-mode:passthrough"><path d="M2.15039,11.4375L2.15039,9.31348L3.01465,9.31348C3.87012,9.31348,4.33594,9.56836,4.33594,10.321290000000001C4.33594,11.0625,3.87012,11.4375,3.01465,11.4375L2.15039,11.4375ZM4.44434,15L5.92969,15L4.37402,12.28418C5.13867,11.98828,5.64258,11.36426,5.64258,10.321290000000001C5.64258,8.74512,4.53516,8.25,3.13184,8.25L0.817383,8.25L0.817383,15L2.15039,15L2.15039,12.49219L3.07617,12.49219L4.44434,15ZM8.3291,15L9.65918,15L9.65918,9.36621L11.54,9.36621L11.54,8.25L6.45703,8.25L6.45703,9.36621L8.3291,9.36621L8.3291,15ZM14.6191,15.1875C16.1572,15.1875,17.0684,14.26172,17.0684,13.133790000000001C17.0684,12.12598,16.5352,11.57812,15.7266,11.232420000000001L14.8535,10.86328C14.2852,10.62012,13.8193,10.441410000000001,13.8193,9.94043C13.8193,9.48047,14.1797,9.20801,14.7627,9.20801C15.3223,9.20801,15.7617,9.42188,16.1865,9.78223L16.8604,8.92676C16.3213,8.37891,15.5449,8.0625,14.7627,8.0625C13.4209,8.0625,12.46,8.90918,12.46,10.02539C12.46,11.04199,13.1426,11.607420000000001,13.8193,11.888670000000001L14.7012,12.2959C15.293,12.55957,15.709,12.71777,15.709,13.236329999999999C15.709,13.72559,15.3398,14.03613,14.6455,14.03613C14.0625,14.03613,13.4209,13.72559,12.9551,13.26562L12.1904,14.21777C12.8379,14.84766,13.7285,15.1875,14.6191,15.1875ZM18.2549,15L19.5879,15L19.5879,12.5625L20.4785,12.5625C21.9082,12.5625,23.0537,11.87988,23.0537,10.35352C23.0537,8.77441,21.917,8.25,20.4434,8.25L18.2549,8.25L18.2549,15ZM19.5879,11.51074L19.5879,9.31348L20.3438,9.31348C21.2607,9.31348,21.7471,9.57422,21.7471,10.35352C21.7471,11.121089999999999,21.3076,11.51074,20.3877,11.51074L19.5879,11.51074Z" fill="#3D3D3D" fill-opacity="1"/></g></g></g></svg>